<svg xmlns="http://www.w3.org/2000/svg" width="50" height="50" viewBox="0 0 50 50"><path d="M31.052 42.03c-.172.062-.345.136-.523.167-.68.12-1.113-.23-1.117-.922-.01-1.287-.01-2.572.012-3.86.022-1.48-.012-2.94-1.14-4.16.67-.12 1.267-.205 1.85-.34 3.862-.886 5.868-3.322 6.124-7.365.13-2.06-.238-3.947-1.605-5.568-.1-.114-.103-.373-.057-.54.365-1.34.258-2.648-.166-3.958-.105-.327-.28-.428-.6-.407-1.135.063-2.174.46-3.09 1.073-.883.593-1.705.722-2.754.482-2.31-.52-4.635-.37-6.94.165-.26.062-.612-.02-.85-.16-1.083-.635-2.165-1.25-3.413-1.497-.965-.188-1.05-.14-1.305.793-.322 1.176-.354 2.353-.025 3.537.047.172-.002.448-.117.575-2.557 2.853-1.63 8.244.092 10.31 1.34 1.603 3.12 2.325 5.096 2.7.345.065.688.114 1.033.173-.297.77-.563 1.497-.864 2.212-.06.138-.246.254-.4.313-1.937.752-3.603.2-4.712-1.56-.593-.938-1.354-1.64-2.488-1.842-.036-.005-.073-.025-.106-.02-.305.08-.607.164-.91.246.17.238.29.558.52.7.96.61 1.586 1.476 2 2.5.648 1.603 1.908 2.32 3.545 2.458.8.066 1.606.01 2.48.01 0 .996.037 2.133-.014 3.265-.025.61-.638.853-1.372.603-1.947-.666-3.752-1.62-5.31-2.963-5.63-4.85-7.8-10.98-5.93-18.156 1.866-7.15 6.727-11.54 13.995-12.916 10.057-1.9 19.584 5.422 20.582 15.63.787 8.05-3.95 15.58-11.523 18.32zm-9.48-8.84l-.017.037.055.01c.014 0 .026.025-.04-.048zm-4.55 3.18c.156.098.306.22.476.274.062.02.177-.12.38-.27-.282-.11-.448-.202-.623-.226-.068-.01-.156.145-.234.223zm1.432.247c.023.105.232.236.355.234.118 0 .234-.16.353-.25l-.548-.493c-.072.207-.19.375-.16.51zm1.758-.424c-.148.035-.273.172-.408.266l.285.348.413-.38c-.1-.084-.217-.252-.29-.235zm-4.358-.593c.082.156.21.29.38.508.116-.188.24-.332.22-.36-.11-.144-.258-.26-.404-.368-.01-.007-.213.186-.196.22z"/></svg>