<svg xmlns="http://www.w3.org/2000/svg" width="100" height="100" viewBox="0 0 100 100"><path d="M87.877 5.608H11.174c-3.673 0-6.65 2.886-6.65 6.448v77.1c0 3.563 2.978 6.452 6.65 6.452h76.703c3.673 0 6.646-2.89 6.646-6.45V12.055c0-3.56-2.973-6.448-6.646-6.448zM31.81 80.944h-13.6V40.31h13.6v40.634zm-6.8-46.185h-.09c-4.56 0-7.516-3.12-7.516-7.024 0-3.983 3.043-7.017 7.693-7.017 4.65 0 7.512 3.032 7.602 7.016 0 3.905-2.95 7.023-7.69 7.023zm55.817 46.184H67.233v-21.74c0-5.464-1.97-9.19-6.886-9.19-3.76 0-5.993 2.514-6.973 4.94-.364.87-.453 2.08-.453 3.293v22.696H39.33s.177-36.823 0-40.634H52.92v5.76c1.805-2.768 5.03-6.717 12.25-6.717 8.946 0 15.655 5.804 15.655 18.29v23.3zM52.834 46.2c.024-.04.056-.085.088-.13v.13h-.088z"/></svg>