<svg xmlns="http://www.w3.org/2000/svg" width="512" height="512" viewBox="0 0 512 512"><path d="M407 187.416c-.493-12.054-1.614-13.66-5.2-17.24-7.454-7.445-19.81-7.267-27.263.186-4.167 4.167-6 9.786-5.51 15.23.023.63 0 15.317-.036 26.246h-15.235v-96.052c0-52.26-42.52-94.774-94.78-94.774h-.016c-52.263 0-94.785 42.515-94.785 94.774v96.052H148.94c-.038-10.93-.057-25.615-.038-26.246.493-5.444-1.34-11.063-5.51-15.23-7.452-7.453-19.534-7.453-26.99 0-3.58 3.577-4.98 5-5.474 17.054 0 0-.07 56.326-.026 62.33.037 11.62.067 20.297.067 20.616 0 75.126 56.293 137.308 128.904 146.692v37.78h-52.798c-10.543 0-19.084 8.54-19.084 19.083 0 10.538 8.542 19.084 19.084 19.084h143.78c10.54 0 19.085-8.545 19.085-19.083 0-10.542-8.544-19.083-19.084-19.083h-52.801v-37.78c72.61-9.384 128.91-71.566 128.91-146.692l.035-82.946zm-91.432-71.63v96.053H202.362v-96.053c0-31.208 25.394-56.605 56.603-56.605 31.21 0 56.603 25.396 56.603 56.605zM202.362 271.003v-21h113.206v21c0 31.212-25.392 56.604-56.603 56.61-31.21-.007-56.603-25.398-56.603-56.61zm-38.187-21v21c0 52.256 42.522 94.775 94.784 94.775h.015c52.26 0 94.78-42.52 94.78-94.775v-21l15.007-.04-.04 20.4c0 60.526-49.234 109.773-109.757 109.793-60.52-.02-109.993-49.23-109.993-109.758l.095-20.395h15.108z" fill="#3D3938"/></svg>