<svg xmlns="http://www.w3.org/2000/svg" width="31.376" height="26.058" viewBox="0 0 31.376 26.058"><path d="M25.362 6.79C24.974 2.99 21.132 0 16.46 0c-4.675 0-8.517 2.992-8.903 6.79H0v5.033l.94.47 5.42 2.843V13.76h3.69v3.31l4.015 2.106h3.928l4.996-2.712V13.76h3.69v.7l3.99-2.167.004-.003.7-.468V6.79h-6.012zm-15.675 0c.404-2.63 3.283-4.674 6.773-4.674 3.488 0 6.37 2.045 6.773 4.673H9.687zM26.68 18.95h-3.69v-1.884l-4.745 2.574-.118.065h-4.192l-.115-.06-3.768-1.977v1.28H6.36v-3.216l-5.42-2.84v13.166h29.73V12.896l-3.99 2.166z"/></svg>