<svg xmlns="http://www.w3.org/2000/svg" width="64" height="64" viewBox="0 0 64 64"><path fill="#231F20" d="M61.674 28.536c0 1.752-.35 3.482-1.006 5.164-.945-1.592-2.242-2.95-3.783-3.963.042-.398.09-.798.09-1.2 0-7.61-7.53-13.803-16.784-13.803-3.717 0-7.324 1.05-10.27 2.947-1.494-.793-3.153-1.268-4.898-1.378 4.03-3.27 9.472-5.144 15.17-5.144 11.844 0 21.482 7.795 21.482 17.378zm-10.71-.068c-.47-4.627-5.11-8.202-10.773-8.202-2.234 0-4.35.586-6.178 1.657-.782-1.08-1.73-1.997-2.793-2.75 2.64-1.55 5.72-2.375 8.97-2.375 8.496 0 15.41 5.574 15.41 12.425 0 .15-.02.304-.026.457-1.41-.693-2.967-1.125-4.61-1.212zm-1.38.693c-.497.032-1 .09-1.504.184-2.18-3.633-6.11-5.872-10.357-5.872-.975 0-1.954.122-2.92.362-.015-.028-.036-.052-.052-.08 1.607-.92 3.47-1.424 5.44-1.424 4.853 0 8.918 3.017 9.395 6.83zm.018 23.682h-36.33c-6.037 0-10.946-4.91-10.946-10.946 0-5.622 4.21-10.303 9.796-10.886l.5-.117v-.507c0-6.036 4.913-10.946 10.948-10.946 4.138 0 7.876 2.3 9.756 6l.212.416.448-.13c1.006-.292 2.03-.438 3.05-.438 3.976 0 7.646 2.165 9.578 5.65l.203.368.41-.09c7.018-1.548 13.32 3.867 13.32 10.68.002 6.035-4.908 10.946-10.945 10.946z"/></svg>