<svg xmlns="http://www.w3.org/2000/svg" width="16.002" height="16" viewBox="0 0 16.002 16"><path d="M16 3.038c-.588.26-1.22.438-1.884.517.678-.406 1.197-1.05 1.443-1.815-.636.376-1.34.65-2.087.797-.598-.64-1.45-1.037-2.395-1.037-1.813 0-3.283 1.47-3.283 3.282 0 .257.03.508.085.748-2.728-.137-5.147-1.444-6.766-3.43C.83 2.584.67 3.148.67 3.75c0 1.14.58 2.144 1.46 2.732-.538-.018-1.044-.166-1.487-.412v.04c0 1.59 1.132 2.918 2.633 3.22-.275.074-.565.115-.865.115-.21 0-.416-.02-.617-.06.418 1.304 1.63 2.253 3.066 2.28-1.124.88-2.54 1.404-4.078 1.404-.265 0-.526-.017-.783-.046 1.452.932 3.177 1.476 5.03 1.476 6.04 0 9.34-5.002 9.34-9.34l-.01-.425c.644-.46 1.202-1.04 1.64-1.697z"/></svg>